<mxfile host="app.diagrams.net" modified="2023-11-10T18:33:31.229Z" agent="Mozilla/5.0 (X11; Linux x86_64; rv:106.0) Gecko/20100101 Firefox/106.0" version="22.1.0" etag="Y_p3WmS9U07JptqTHrcI" type="github">
  <diagram name="PÃ¡gina-1" id="1qD4cs_lvlKYeJ9k2h19">
    <mxGraphModel>
      <root>
        <mxCell id="0" />
        <mxCell id="1" parent="0" />
      </root>
    </mxGraphModel>
  </diagram>
</mxfile>
